<?xml version="1.0" encoding="UTF-8" standalone="no"?>
<!DOCTYPE svg PUBLIC "-//W3C//DTD SVG 1.1//EN" "http://www.w3.org/Graphics/SVG/1.1/DTD/svg11.dtd">
<svg width="100%" height="100%" viewBox="0 0 512 512" style="fill-rule:evenodd;clip-rule:evenodd;stroke-linejoin:round;stroke-miterlimit:2;">
    <path d="M256,0C397.385,0 512,114.615 512,256C512,256 512,256 512,256C512,397.385 397.385,512 256,512C256,512 256,512 256,512C114.615,512 -0,397.385 -0,256C0,256 0,256 0,256C0,114.615 114.615,0 256,0L256,0Z" style="fill:url(#_Linear1);"/>
    <g transform="matrix(0.538417,0,0,0.538417,-41.3142,98.6307)">
        <path d="M415.046,244.658C415.046,199.24 378.172,162.366 332.754,162.366C287.335,162.366 250.461,199.24 250.461,244.658L250.461,354.458L195.6,354.458L195.6,244.658C195.6,168.961 257.056,107.504 332.754,107.504C377.403,107.504 417.097,128.885 442.148,161.958C467.159,128.387 507.159,106.628 552.201,106.628C597.045,106.628 636.892,128.197 661.924,161.518C686.956,128.197 726.803,106.628 771.647,106.628C847.345,106.628 908.802,168.084 908.802,243.782L908.802,353.582L853.94,353.582L853.94,243.782C853.94,198.363 817.066,161.489 771.647,161.489C726.229,161.489 689.355,198.363 689.355,243.782L689.355,349.491C689.355,350.576 688.924,351.616 688.157,352.384C687.389,353.151 686.349,353.582 685.264,353.582C675.094,353.582 648.755,353.582 638.584,353.582C637.499,353.582 636.459,353.151 635.691,352.384C634.924,351.616 634.493,350.576 634.493,349.491C634.493,329.582 634.493,243.782 634.493,243.782C634.493,198.363 597.619,161.489 552.201,161.489C506.782,161.489 469.908,198.363 469.908,243.782L469.908,350.367C469.908,351.452 469.477,352.493 468.71,353.26C467.943,354.027 466.902,354.458 465.817,354.458C455.647,354.458 429.308,354.458 419.137,354.458C418.052,354.458 417.012,354.027 416.245,353.26C415.477,352.493 415.046,351.452 415.046,350.367C415.046,330.458 415.046,244.658 415.046,244.658ZM579.632,340.781C579.632,386.2 616.506,423.074 661.924,423.074C707.343,423.074 744.217,386.2 744.217,340.781L744.217,230.981L799.078,230.981L799.078,340.781C799.078,416.479 737.622,477.936 661.924,477.936C617.079,477.936 577.232,456.366 552.201,423.045C527.169,456.366 487.322,477.936 442.477,477.936C366.78,477.936 305.323,416.479 305.323,340.781L305.323,230.981L360.185,230.981L360.185,340.781C360.185,386.2 397.059,423.074 442.477,423.074C487.896,423.074 524.77,386.2 524.77,340.781L524.77,230.981L579.632,230.981L579.632,340.781Z"/>
    </g>
    <defs>
        <linearGradient id="_Linear1" x1="0" y1="0" x2="1" y2="0" gradientUnits="userSpaceOnUse" gradientTransform="matrix(512,512,-512,512,0,0)"><stop offset="0" style="stop-color:rgb(255,216,58);stop-opacity:1"/><stop offset="0.5" style="stop-color:rgb(221,138,255);stop-opacity:1"/><stop offset="1" style="stop-color:rgb(116,195,255);stop-opacity:1"/></linearGradient>
    </defs>
</svg>
